# xmcd CD database file
#
# Track frame offsets:
#	150
#	13173
#	25322
#	41756
#	53217
#	64107
#	79172
#	93632
#	112127
#	129222
#
# Disc length: 1926 seconds
#
# Revision: 0
# Processed by: cddbd v1.5.2PL0 Copyright (c) Steve Scherf et al.
# Submitted via: CDex 1.51
#
DISCID=8607840a
DTITLE=Dennis March - Tequila Sunrise
DYEAR=1900
DGENRE=Country
TTITLE0=Tequila Sunrise
TTITLE1=Linda On My Mind
TTITLE2=Virtical Expression
TTITLE3=Leave My Mama Out Of This
TTITLE4=Walk Right Back
TTITLE5=Third Rate Romance
TTITLE6=Could I Have This Dance
TTITLE7=Neon Moon
TTITLE8=At The Drop Of A Tear
TTITLE9=Where Am I Gonna Live
EXTD=
EXTT0=
EXTT1=
EXTT2=
EXTT3=
EXTT4=
EXTT5=
EXTT6=
EXTT7=
EXTT8=
EXTT9=
PLAYORDER=
